<?xml version="1.0" encoding="utf-8"?>
<svg version="1.1" id="Layer_1" xmlns="http://www.w3.org/2000/svg" xmlns:xlink="http://www.w3.org/1999/xlink" x="0px" y="0px"
	 viewBox="0 0 49 61.2" style="enable-background:new 0 0 49 61.2;" xml:space="preserve">
<path d="M24,32c-0.2-2-0.3-4-0.7-6c-2-0.7-4.1-1.2-6.2-1.8l13.7-5.4L24,32z M33,18.9c0-1.2-0.8-2.2-2.2-2.2
	c-1.3,0-10.5,3.7-11.7,4.3c-2,0.8-4.2,1-4.2,3.3c0,2.9,4.3,2.4,6.3,3.5c0.9,1-1,6.4,2.8,6.4c0.2,0,0.4-0.1,0.5-0.1
	c0.3-0.1,0.9-0.3,1.1-0.7c2.1-3.9,4.1-7.9,6.2-11.7C32.5,20.5,33,19.8,33,18.9z M43.6,24.4c0,10.2-8.5,18.7-18.7,18.7
	c-10.4,0-18.7-8.5-18.7-18.7C6.1,14,14.5,5.6,24.9,5.6C35.1,5.6,43.6,14,43.6,24.4z M46.2,24.4C46.2,12.6,36.6,3,24.9,3
	C15.1,3,4.8,9.8,3.5,22.9v2.9c0,1.5,0.7,4,1,5.2C8,41.5,17.3,45.8,24.9,45.8C36.6,45.8,46.2,36.1,46.2,24.4z"/>
</svg>
